
<svg id="Layer_1" data-name="Layer 1" xmlns="http://www.w3.org/2000/svg" xmlns:xlink="http://www.w3.org/1999/xlink" viewBox="0 0 477 441"><defs><style>.cls-1{fill:none;}.cls-2,.cls-45{fill:#68b6ea;}.cls-2{opacity:0.48;}.cls-3{fill:url(#linear-gradient);}.cls-4{clip-path:url(#clip-path);}.cls-5{fill:url(#linear-gradient-2);}.cls-6{fill:url(#linear-gradient-3);}.cls-7{fill:url(#linear-gradient-4);}.cls-8{fill:url(#linear-gradient-5);}.cls-9{fill:url(#linear-gradient-6);}.cls-10{fill:url(#linear-gradient-7);}.cls-11{fill:url(#linear-gradient-8);}.cls-12{fill:url(#linear-gradient-9);}.cls-13{fill:url(#linear-gradient-10);}.cls-14{fill:url(#linear-gradient-11);}.cls-15{fill:url(#linear-gradient-12);}.cls-16{fill:url(#linear-gradient-13);}.cls-17{fill:url(#linear-gradient-14);}.cls-18{fill:#4f93e3;}.cls-19{fill:url(#linear-gradient-15);}.cls-20{fill:url(#linear-gradient-16);}.cls-21{fill:url(#linear-gradient-17);}.cls-22{fill:url(#linear-gradient-18);}.cls-23{fill:url(#linear-gradient-19);}.cls-24{fill:url(#linear-gradient-20);}.cls-25{fill:url(#linear-gradient-21);}.cls-26,.cls-42,.cls-46,.cls-53{fill:#fff;}.cls-27{fill:url(#linear-gradient-22);}.cls-28{fill:url(#linear-gradient-23);}.cls-29{fill:#3384d3;}.cls-30{fill:url(#linear-gradient-24);}.cls-31{fill:url(#linear-gradient-25);}.cls-32{fill:url(#linear-gradient-26);}.cls-33{fill:url(#linear-gradient-27);}.cls-34{fill:url(#linear-gradient-28);}.cls-35{fill:url(#linear-gradient-29);}.cls-36{fill:url(#linear-gradient-30);}.cls-37{fill:url(#linear-gradient-31);}.cls-38{fill:url(#linear-gradient-32);}.cls-39{fill:url(#linear-gradient-33);}.cls-40{fill:url(#linear-gradient-34);}.cls-41{fill:url(#radial-gradient);}.cls-42{opacity:0.52;}.cls-43{fill:#3ba5e0;}.cls-44{fill:#4099df;}.cls-46,.cls-47,.cls-48,.cls-49,.cls-51{fill-rule:evenodd;}.cls-47,.cls-52{fill:#4fc3f7;}.cls-48{fill:#78d3f4;}.cls-49,.cls-50{fill:#fafafa;}.cls-51{fill:#e0e0e0;}.cls-53{opacity:0.76;}.cls-54{fill:#dcf1f9;}.cls-55{fill:url(#linear-gradient-35);}.cls-56{fill:#c5e4ed;}</style><linearGradient id="linear-gradient" x1="489.72" y1="373.19" x2="-200.33" y2="-34.2" gradientUnits="userSpaceOnUse"><stop offset="0" stop-color="#000b75"/><stop offset="0.41" stop-color="#1c55ac"/><stop offset="1" stop-color="#46c7ff"/></linearGradient><clipPath id="clip-path"><path class="cls-1" d="M410.67,119.74C412,104.47,406.24,87.58,392.9,80c-16.53-9.35-37.38-1.56-56.13-4.61-14.93-2.42-27.79-11.62-39.7-21s-23.87-19.32-38.32-23.82-32.29-2-41.35,10.08c-10.39,13.9-5.64,34.08-12.59,50-6.55,15-22.57,23.78-38.51,27.39s-32.53,3.15-48.7,5.55S84.7,132,74.92,145.12c-11,14.69-10.66,35.32-4.51,52.59s17.33,32.19,27.26,47.59,19,32.28,19.87,50.59c1,19.38-7.27,38.34-6.34,57.72,1.15,24.15,18,46.83,40.73,55,24.19,8.63,51,1.43,75.07-7.53s48.55-19.84,74.2-18.44c15,.82,29.44,5.83,44.38,7.21S377.31,388,386.38,376c11.29-14.89,6-36.29-1.91-53.22s-18.24-34.45-15.53-52.94c2-13.63,10.85-25.14,19.62-35.76s18-21.6,21.24-35a34.61,34.61,0,0,0-.78-18.75c-2.16-6.44-9.71-10.1-11.58-15.34-2.27-6.34,4-14,6.46-19.94C407.22,136.94,409.92,128.53,410.67,119.74Z"/></clipPath><linearGradient id="linear-gradient-2" x1="572.79" y1="260.43" x2="-94.88" y2="80.39" xlink:href="#linear-gradient"/><linearGradient id="linear-gradient-3" x1="163.07" y1="111.32" x2="136.8" y2="97.45" gradientUnits="userSpaceOnUse"><stop offset="0" stop-color="#4f93e3"/><stop offset="1" stop-color="#fff"/></linearGradient><linearGradient id="linear-gradient-4" x1="305.96" y1="182.27" x2="230.97" y2="143.63" gradientTransform="translate(-37.41 93.07) rotate(-18.97)" xlink:href="#linear-gradient-3"/><linearGradient id="linear-gradient-5" x1="208.66" y1="118.48" x2="208.06" y2="80.96" xlink:href="#linear-gradient-3"/><linearGradient id="linear-gradient-6" x1="202.82" y1="111.11" x2="233.65" y2="-22.09" xlink:href="#linear-gradient-3"/><linearGradient id="linear-gradient-7" x1="287.3" y1="174.79" x2="210.48" y2="137.94" xlink:href="#linear-gradient-3"/><linearGradient id="linear-gradient-8" x1="258.53" y1="171.23" x2="197.22" y2="142.4" xlink:href="#linear-gradient-3"/><linearGradient id="linear-gradient-9" x1="145.95" y1="82.64" x2="197.1" y2="82.64" xlink:href="#linear-gradient-3"/><linearGradient id="linear-gradient-10" x1="188.84" y1="85.88" x2="132.46" y2="77.85" xlink:href="#linear-gradient-3"/><linearGradient id="linear-gradient-11" x1="158.95" y1="261.19" x2="266.53" y2="261.19" gradientUnits="userSpaceOnUse"><stop offset="0" stop-color="#4f93e3"/><stop offset="1" stop-color="#1c6cf1"/></linearGradient><linearGradient id="linear-gradient-12" x1="174.8" y1="257.76" x2="142.69" y2="216.16" xlink:href="#linear-gradient-3"/><linearGradient id="linear-gradient-13" x1="223.51" y1="220.16" x2="191.4" y2="178.55" xlink:href="#linear-gradient-3"/><linearGradient id="linear-gradient-14" x1="193.73" y1="188.78" x2="166.97" y2="149.61" gradientUnits="userSpaceOnUse"><stop offset="0" stop-color="#4f93e3"/><stop offset="0.06" stop-color="#5999e5"/><stop offset="1" stop-color="#fff"/></linearGradient><linearGradient id="linear-gradient-15" x1="159.16" y1="270.18" x2="121.45" y2="243.17" xlink:href="#linear-gradient-3"/><linearGradient id="linear-gradient-16" x1="212.94" y1="284.88" x2="175.72" y2="256.9" xlink:href="#linear-gradient-3"/><linearGradient id="linear-gradient-17" x1="251.54" y1="233.51" x2="214.32" y2="205.53" xlink:href="#linear-gradient-3"/><linearGradient id="linear-gradient-18" x1="210.16" y1="198.96" x2="172.45" y2="171.96" xlink:href="#linear-gradient-3"/><linearGradient id="linear-gradient-19" x1="211.18" y1="350.99" x2="92.46" y2="297.47" xlink:href="#linear-gradient-3"/><linearGradient id="linear-gradient-20" x1="130.6" y1="231.91" x2="103.84" y2="192.74" xlink:href="#linear-gradient-3"/><linearGradient id="linear-gradient-21" x1="130.78" y1="301.48" x2="60.47" y2="235.79" xlink:href="#linear-gradient-3"/><linearGradient id="linear-gradient-22" x1="202.09" y1="74.6" x2="295.69" y2="117.48" xlink:href="#linear-gradient-3"/><linearGradient id="linear-gradient-23" x1="229.88" y1="85.45" x2="323.48" y2="128.33" xlink:href="#linear-gradient-3"/><linearGradient id="linear-gradient-24" x1="220" y1="168.5" x2="265.94" y2="168.5" xlink:href="#linear-gradient-11"/><linearGradient id="linear-gradient-25" x1="261.14" y1="180.74" x2="215.4" y2="153.01" xlink:href="#linear-gradient-3"/><linearGradient id="linear-gradient-26" x1="283.72" y1="143.97" x2="206.72" y2="92.69" xlink:href="#linear-gradient-3"/><linearGradient id="linear-gradient-27" x1="286.7" y1="143.37" x2="167.18" y2="82.06" xlink:href="#linear-gradient-3"/><linearGradient id="linear-gradient-28" x1="308.65" y1="142.21" x2="251.17" y2="101.15" xlink:href="#linear-gradient-3"/><linearGradient id="linear-gradient-29" x1="261.69" y1="129.94" x2="233.48" y2="116.41" xlink:href="#linear-gradient-3"/><linearGradient id="linear-gradient-30" x1="298.27" y1="163.38" x2="264.09" y2="145.64" xlink:href="#linear-gradient-3"/><linearGradient id="linear-gradient-31" x1="319.96" y1="179.95" x2="257.38" y2="148.75" xlink:href="#linear-gradient-3"/><linearGradient id="linear-gradient-32" x1="282.29" y1="168.48" x2="262.04" y2="151.69" xlink:href="#linear-gradient-3"/><linearGradient id="linear-gradient-33" x1="380.75" y1="54.59" x2="284.82" y2="-13.93" gradientTransform="matrix(0.98, 0.12, -0.13, 1.14, -73.38, 13.47)" xlink:href="#linear-gradient-3"/><linearGradient id="linear-gradient-34" x1="290.05" y1="112.16" x2="276.18" y2="5.6" gradientUnits="userSpaceOnUse"><stop offset="0" stop-color="#001962"/><stop offset="0.46" stop-color="#6ea6e8"/><stop offset="1" stop-color="#fff"/></linearGradient><radialGradient id="radial-gradient" cx="305.8" cy="84.23" r="61.41" gradientUnits="userSpaceOnUse"><stop offset="0" stop-color="#000b75"/><stop offset="0.15" stop-color="#010e77"/><stop offset="0.28" stop-color="#05197f"/><stop offset="0.4" stop-color="#0c2a8c"/><stop offset="0.52" stop-color="#15429e"/><stop offset="0.63" stop-color="#2062b5"/><stop offset="0.73" stop-color="#2f89d1"/><stop offset="0.84" stop-color="#40b6f2"/><stop offset="0.87" stop-color="#46c7ff"/></radialGradient><linearGradient id="linear-gradient-35" x1="314.45" y1="806.47" x2="279.6" y2="809.27" gradientTransform="matrix(1.07, 0, 0, 1.07, 10.96, -509.76)" gradientUnits="userSpaceOnUse"><stop offset="0" stop-color="#c2cece" stop-opacity="0"/><stop offset="0.18" stop-color="#afbcbc" stop-opacity="0.18"/><stop offset="1" stop-color="#5b6a6a"/></linearGradient></defs><title>nova</title><circle class="cls-2" cx="196.45" cy="385.87" r="4.14"/><path class="cls-3" d="M410.67,119.74C412,104.47,406.24,87.58,392.9,80c-16.53-9.35-37.38-1.56-56.13-4.61-14.93-2.42-27.79-11.62-39.7-21s-23.87-19.32-38.32-23.82-32.29-2-41.35,10.08c-10.39,13.9-5.64,34.08-12.59,50-6.55,15-22.57,23.78-38.51,27.39s-32.53,3.15-48.7,5.55S84.7,132,74.92,145.12c-11,14.69-10.66,35.32-4.51,52.59s17.33,32.19,27.26,47.59,19,32.28,19.87,50.59c1,19.38-7.27,38.34-6.34,57.72,1.15,24.15,18,46.83,40.73,55,24.19,8.63,51,1.43,75.07-7.53s48.55-19.84,74.2-18.44c15,.82,29.44,5.83,44.38,7.21S377.31,388,386.38,376c11.29-14.89,6-36.29-1.91-53.22s-18.24-34.45-15.53-52.94c2-13.63,10.85-25.14,19.62-35.76s18-21.6,21.24-35a34.61,34.61,0,0,0-.78-18.75c-2.16-6.44-9.71-10.1-11.58-15.34-2.27-6.34,4-14,6.46-19.94C407.22,136.94,409.92,128.53,410.67,119.74Z"/><g class="cls-4"><path class="cls-5" d="M38.25,80c19.81-9,43.64-7.3,65.07-2.07s41.81,13.73,63.52,17.94c54.73,10.6,110.78-6.94,166.58-11.14C392,80.35,452,91.1,504.25,115.4c-31.95-12.36-68-14-102.66-11.59S332.7,112.5,298.1,115.75a585.75,585.75,0,0,1-65.73,2.47c-29.37-.55-59.89-3.14-87.1,6.79,13.8-1.94,28,4.91,39.52,12.06s21.56,16.08,33.58,22.48c17,9.05,37,12.56,56.67,14s39.54,1,59.2,2.84c55.7,5.26,107,28.68,156.77,51.69-8.73,44.08-27.24,87.7-53.43,125.79C393.36,347.21,352,328,312.67,308.67s-78.1-40.27-120.57-53.23S102.29,238,60.24,252c.72-43.45,1.82-88.65,2.54-132.11.14-8.17.23-16.55-2.87-24.23S47.26,81.14,38.25,80Z"/></g><path class="cls-6" d="M316,117.41l-4.42-8-1.45,4.84L259.55,96.86a7.18,7.18,0,0,0-9.12,4.45L212.74,211a7.18,7.18,0,0,0,4.45,9.12l53.24,18.3a7.18,7.18,0,0,0,9.12-4.45l37.69-109.64A7.15,7.15,0,0,0,316,117.41Z"/><rect class="cls-7" x="224.49" y="93.35" width="70.65" height="130.29" rx="2.46" ry="2.46" transform="translate(65.64 -75.86) rotate(18.97)"/><path class="cls-8" d="M177.92,97.31c.29,2.81,2.09,5.22,3.93,7.37,1.49,1.74,3.2,3.52,5.44,4s5.13-.43,7,1.12c2.36,2,.76,6,2.1,8.83,1.49,3.11,5.76,3.39,9.18,2.95,6.61-.85,13.9-3.42,16.55-9.54.62,2.57,4,3.63,6.46,2.67s4.11-3.27,5.4-5.58A44.15,44.15,0,0,0,238.72,96a83.29,83.29,0,0,0-9.47,2C221.62,100,202.51,105,202.51,105a2.47,2.47,0,0,0-2.18-.49l-1.22.36s-12.65-14.35-13.5-14.35a23.72,23.72,0,0,0-3.58.79L179,93.22A6.34,6.34,0,0,0,177.92,97.31Z"/><path class="cls-9" d="M238.72,96a44.15,44.15,0,0,1-4.79,13.14c-1.29,2.31-2.94,4.62-5.4,5.58s-5.84-.11-6.46-2.67c-2.65,6.12-9.94,8.68-16.55,9.54-3.42.44-7.69.16-9.18-2.95-1.34-2.8.27-6.82-2.1-8.83-1.82-1.55-4.61-.62-7-1.12s-4-2.25-5.44-4c-1.84-2.15-3.64-4.55-3.93-7.37a6.34,6.34,0,0,1,1-4.09L169.5,99a11.76,11.76,0,0,0,1.4,3.59c1,1.46,18.25,24.53,21.17,25.77s41.06-2.29,41.06-2.29l9.42-30.53S241.11,95.64,238.72,96Z"/><path class="cls-10" d="M263,193.19c4.46-5.82,3.21-14,4.68-21.2,1.15-5.61,4.06-10.76,5.08-16.4s-.57-12.5-5.8-14.84L299.09,131a46,46,0,0,0,1.6-7.13c-.18-2.85-3.77-11.64-3.77-11.64l-65.26,16.18s-1.21,7.85-2.58,11.13S214.2,176,214.2,176l6.54,34.05a67.6,67.6,0,0,1,21.72-8.62C249.89,199.94,258.43,199.2,263,193.19Z"/><path class="cls-11" d="M267,140.75c5.23,2.34,6.83,9.2,5.8,14.84s-3.93,10.79-5.08,16.4c-1.47,7.18-.22,15.38-4.68,21.2-4.61,6-13.15,6.75-20.57,8.25a67.6,67.6,0,0,0-21.72,8.62l.57,3,45,.72s3.7-8.11,4-8.93,9.94-18.88,10.22-19.71,8.21-18.79,8.21-18.79,7.09-23.18,10.35-35.36Z"/><path class="cls-12" d="M182.33,83.32a74.5,74.5,0,0,0-2.92-10.89c-.73-1.7-2.07-2.43-3.77-1.34a1.67,1.67,0,0,0-.65,1c-.44,1.65.53,4.31.53,4.31s-.24-.39-.59-.91a7.94,7.94,0,0,1,.59,2.62c.07,2.36-.9,4.63-1.13,7a14.82,14.82,0,0,0,1,6.42,28.79,28.79,0,0,0,1.38,3.15C179.5,93,182,91.35,182,91.35A33.49,33.49,0,0,0,182.33,83.32Z"/><path class="cls-13" d="M175.33,91.56a14.82,14.82,0,0,1-1-6.42c.23-2.35,1.21-4.62,1.13-7a7.94,7.94,0,0,0-.59-2.62c-.32-.48-.74-1.06-1.17-1.58-.14-.17-.29-.34-.43-.49l-1.24-1.33a39,39,0,0,0-4.23-4c-2.19-1.7-6-2.19-7.36-1.64s1.34,3.35,1.34,3.35-2.55-.49-4-.79-5.29,1.7-5.84,2.49-.73,2.13-2.31,2.62-1.46,2.55-1,3.28S156.91,80,156.42,80s-7.91-1.22-8.27,1.34,7.12,1.82,9.49,3.1S168.95,99,169.5,99a18.37,18.37,0,0,0,2.52-1.4c1.35-.82,3.06-1.87,4.69-2.9A28.79,28.79,0,0,1,175.33,91.56Z"/><path class="cls-14" d="M183.36,294.06s13.32-34.12,15.14-38.85,14.12-32,14.22-32.21c-7.13,12.35-14.29,28.72-16.78,33.22-3,5.5-12,30.75-16.22,43.13l6.55-2.2Z"/><path class="cls-15" d="M145.3,275c3.84-.56,7.09-3,10-5.64a84.94,84.94,0,0,0,10.13-10.86,5.43,5.43,0,0,0,1.34-2.63c.24-2.17-2-3.77-4.08-4.48s-4.19-1.37-5.37-3.21c5.46-.06,11.86-.61,14.79-5.23,2.62-4.13,1.44-10.27,5.06-13.55,2.59-2.35,6.62-2.21,9.59-4.06,2.41-1.5,3.85-4.11,5.65-6.33A76.58,76.58,0,0,0,177,195.52c-6.45,3.47-11.5,6.27-12.66,7.15-3,2.24-19.68,40.29-27.1,57.41-2.17,5-3.56,8.25-3.56,8.25l.8,2.13.69,1.85A14.48,14.48,0,0,0,145.3,275Z"/><path class="cls-16" d="M202.45,214.23c2.54-.49,5.21-1.25,6.89-3.21s2.48-6.68.26-8a9.59,9.59,0,0,0,10.51.4,9.17,9.17,0,0,0,2.9-2.94c-.48-2.4-1-4.88-1.56-7.22a95.14,95.14,0,0,0-2.85-10.32c-2.37-6.2-4.38-6.93-4.38-6.93s-6.74,3.48-15.26,7.94c-5.34,2.79-11.37,6-16.91,8.91a109.41,109.41,0,0,1,13.34,23.48C197.48,215.06,200,214.7,202.45,214.23Z"/><path class="cls-17" d="M223,200.48a9.17,9.17,0,0,1-2.9,2.94,9.59,9.59,0,0,1-10.51-.4c2.22,1.33,1.42,6.05-.26,8s-4.35,2.73-6.89,3.21-5,.82-7.07,2.1a109.18,109.18,0,0,1,4.2,12.13c7.62-3.74,15.93-7.74,16.93-7.93,1.9-.36,7.37-4.2,8.28-6.39C225.23,213.07,224.32,207.06,223,200.48Z"/><path class="cls-18" d="M195.37,216.33A109.41,109.41,0,0,0,182,192.85l-5,2.67a76.37,76.37,0,0,1,19,34.68l3.54-1.74A109.18,109.18,0,0,0,195.37,216.33Z"/><path class="cls-19" d="M219.35,245l3.45,11a46.54,46.54,0,0,1-10.69,20.75c-1.34,1.45-2.82,2.88-3.49,4.74s-.47,3.74-1,5.54c-.93,3.14-3.92,5.32-7.07,6.2s-6.49.68-9.76.47l9.12,5.53c.62,4-2.48,8.21-6.22,9.77s-8.11,1-11.84-.57a28.7,28.7,0,0,1-4.36-2.39v0c-1,3.16,3.41,6.08,3.41,6.08s-.26.47-.67,1.13a26.74,26.74,0,0,1-2.5,3.49c-1.05,1.2-11.44,8.41-16.28,15.48-3,4.39-3.89,8.73,1,11.52,12.65,7.3,35-16.54,35.76-18.49s2.19-9.24,2.19-9.24,2.92-.73,4.14-1.22,27.73-60.33,27.73-60.33l1.74-1.45a52.54,52.54,0,0,0-8.93-7A12.27,12.27,0,0,1,219.35,245Z"/><path class="cls-20" d="M193.68,309.05c3.75-1.56,6.84-5.76,6.22-9.77l-9.12-5.53c3.27.21,6.61.41,9.76-.47s6.14-3.06,7.07-6.2c.54-1.8.37-3.77,1-5.54s2.15-3.29,3.49-4.74A46.54,46.54,0,0,0,222.8,256l-3.45-11a12.27,12.27,0,0,0,5.66,1,52.78,52.78,0,0,0-20.44-7.57c-3.89,7.9-7.12,15-8.62,17.72-3,5.5-12,30.75-16.22,43.13-.81,2.37-1.48,4.32-1.87,5.51-.19.56-.32,1-.39,1.2a28.7,28.7,0,0,0,4.36,2.39C185.57,310.07,189.93,310.61,193.68,309.05Z"/><path class="cls-18" d="M230.52,244.86l.07,0a67.54,67.54,0,0,0-23.65-11c-.81,1.59-1.6,3.17-2.36,4.73A52.78,52.78,0,0,1,225,246.08,16.61,16.61,0,0,0,230.52,244.86Z"/><path class="cls-18" d="M230.52,244.86a16.61,16.61,0,0,1-5.5,1.22,52.54,52.54,0,0,1,8.93,7l3.25-2.74a66.69,66.69,0,0,0-6.61-5.51Z"/><path class="cls-21" d="M240,238.43a98.43,98.43,0,0,0,13.18-14.54c2.9-3.93,5.61-8.37,5.66-13.25a10.77,10.77,0,0,0-4.71-9,38.72,38.72,0,0,0-15.7,1,54.72,54.72,0,0,0-14.46,6.11c-3.16,1.54-7.17,7.24-11.2,14.22-2,3.4-3.92,7.1-5.79,10.78a67.54,67.54,0,0,1,23.65,11A33.06,33.06,0,0,0,240,238.43Z"/><path class="cls-22" d="M259.94,203.2a29.26,29.26,0,0,0-5.85-1.54,10.77,10.77,0,0,1,4.71,9c-.05,4.89-2.76,9.33-5.66,13.25A98.43,98.43,0,0,1,240,238.43a33.06,33.06,0,0,1-9.37,6.4,66.69,66.69,0,0,1,6.61,5.51c4.78-4.06,11.64-10,14.22-13.09C255.56,232.39,277.21,209.76,259.94,203.2Z"/><path class="cls-23" d="M176.08,332.78a2.49,2.49,0,0,1,.1,3.1,4.6,4.6,0,0,1-2.83,1.68,7.31,7.31,0,0,1-5.84-1.11c-3.09-2.25-3.64-8.87,1.18-9.39,2.07-.22,2.23.87,2.83,2.4C172.59,332.18,174.29,331,176.08,332.78Z"/><path class="cls-24" d="M192.39,219.06c-1.79,2.22-3.24,4.83-5.65,6.33-3,1.85-7,1.71-9.59,4.06-3.63,3.29-2.44,9.42-5.06,13.55-2.93,4.61-9.33,5.17-14.79,5.23,1.18,1.84,3.3,2.5,5.37,3.21s4.32,2.3,4.08,4.48a5.43,5.43,0,0,1-1.34,2.63,84.94,84.94,0,0,1-10.13,10.86c-2.88,2.59-6.14,5.08-10,5.64a14.48,14.48,0,0,1-10.08-2.72l.34.91s.44,1.12-1.36,2.15c-.15.09-.29.17-.47.26-1.55.72-13.82,2.29-22.86,3.75l.48.26,7.74,4.56c.72.43,6.26,3.13,6.1,3.82-.32,1.44-11.39-.28-12.52-.48a27.47,27.47,0,0,1-8.53-2.87c-1.08-.6-2.22-1.48-2.25-2.71a2.08,2.08,0,0,1,.16-.83,3.86,3.86,0,0,0-.8.33c-2.55,1.64-2.37,7.3-2.37,7.3A66.76,66.76,0,0,0,114,295.52c8.21,2.37,28.1,2.19,30.84,2.19s8.21-13.14,8.21-13.14,5.84.18,7.12-1.09,26.27-48.54,26.27-48.54,4.26-2.13,9.56-4.74A76.46,76.46,0,0,0,192.39,219.06Z"/><path class="cls-25" d="M104.14,284.68a27.47,27.47,0,0,0,8.53,2.87c1.13.2,12.2,1.92,12.52.48.16-.7-5.38-3.4-6.1-3.82l-7.74-4.56-.48-.26c-1.59.26-3.09.51-4.4.75a39.7,39.7,0,0,0-4.42,1,2.08,2.08,0,0,0-.16.83C101.92,283.2,103.06,284.08,104.14,284.68Z"/><path class="cls-26" d="M221.26,214l.44-.47c.83-.88,2.17-1.77,3.12-1a1.74,1.74,0,0,1,.34,2,5.57,5.57,0,0,1-1.43,1.7A39.85,39.85,0,0,0,214.12,230a4,4,0,0,1-1.43,2.09,1.45,1.45,0,0,1-1.87-.38c-.46-.75.27-1.81.58-2.53a53.14,53.14,0,0,1,9.87-15.2Z"/><path class="cls-26" d="M206.34,245.8l-1.54,2.79c-.31.56-.76,1.21-1.4,1.17a1.17,1.17,0,0,1-1-.95,3.14,3.14,0,0,1,.11-1.45c.47-1.91,1.39-5.59,3.64-6.26C209.18,240.21,206.92,244.74,206.34,245.8Z"/><path class="cls-26" d="M165.08,210.74c-.49,1.29-1.1,2.53-1.7,3.77q-4.23,8.65-8.48,17.3a4.27,4.27,0,0,1-1.51,2c-.62.35-1.87.28-2.15-.53s.82-2.38,1.12-3.08q1.52-3.53,3.12-7,3.25-7.13,6.79-14.13a4.35,4.35,0,0,1,1.18-1.63,1.5,1.5,0,0,1,1.87,0,2.11,2.11,0,0,1,.19,2.12C165.39,209.9,165.24,210.32,165.08,210.74Z"/><path class="cls-26" d="M151.41,237.21a1.54,1.54,0,0,1,.24,1.37,4.56,4.56,0,0,1-.64,1.29l-2.43,3.8a2.43,2.43,0,0,1-.58.7.83.83,0,0,1-.86.11c-.44-.24-.41-.87-.3-1.35C147.09,242.05,149.76,235.26,151.41,237.21Z"/><path class="cls-18" d="M294.85,107.59,250.36,96.29c-1.88,2.91-4.56,9.28,3.51,14.46,10.82,6.93,26.14,6,26.14,6a14.9,14.9,0,0,1,5,9.61c.73,6.33-.49,11.07-2.31,12.89s-20.07,15.08-39.9,4.87c-14.15-7.29-11.1-23.78-8.19-32.62-4.19,12.16-6.3,29.4,10.74,36.75,26.52,11.43,42.21-11.56,42.21-11.56l.73-4.62c.73-4.62,8.64-19.83,8.64-19.83Z"/><path class="cls-27" d="M265.53,92.58l-6.57-2s-18.43,9.33-5.1,18.84a16.74,16.74,0,0,1,3-8.5A35.29,35.29,0,0,1,265.53,92.58Z"/><path class="cls-28" d="M294.3,101.44l-28.77-8.86a35.29,35.29,0,0,0-8.71,8.32,16.74,16.74,0,0,0-3,8.5,29,29,0,0,0,3.65,2.2c20,10.22,37.33-4,37.33-4Z"/><path class="cls-29" d="M280,187.86a138.29,138.29,0,0,1-60.41-26.72l3.46-7.89A138.29,138.29,0,0,0,283.48,180Z"/><path class="cls-30" d="M226.1,178.28l19.25,8.78c3.3,1.51,7.28,3,10.38,1.09,2.24-1.37,3.21-4.08,4-6.58l4.71-14.51a8,8,0,0,0,.51-2.91,7.72,7.72,0,0,0-2-1.26l-11.86-5.78-10.84-5.28c-2.15-1-6.69-4.47-9.2-3.78s-3.91,6.53-4.87,8.64q-2.44,5.4-4.79,10.84c-.91,2.1-1.8,4.39-1.28,6.6C221.5,176,223.89,177.27,226.1,178.28Z"/><path class="cls-29" d="M265.57,164.9a3,3,0,0,0-.59-.75,8,8,0,0,1-.51,2.91l-4.71,14.51c-.81,2.5-1.78,5.21-4,6.58-3.1,1.89-7.07.41-10.38-1.09l-19.25-8.78c-2.21-1-4.6-2.24-5.95-4.15,0,0,0,.08,0,.12.79,3,4,4.72,6.84,6l19.25,8.78c3.3,1.51,7.28,3,10.38,1.09,2.24-1.37,3.21-4.08,4-6.58l4.71-14.51C265.82,167.7,266.25,166.16,265.57,164.9Z"/><path class="cls-31" d="M226.1,178.28l19.25,8.78c3.3,1.51,7.28,3,10.38,1.09,2.24-1.37,3.21-4.08,4-6.58l4.71-14.51a8,8,0,0,0,.51-2.91,7.72,7.72,0,0,0-2-1.26l-11.86-5.78-10.84-5.28c-2.15-1-6.69-4.47-9.2-3.78s-3.91,6.53-4.87,8.64q-2.44,5.4-4.79,10.84c-.91,2.1-1.8,4.39-1.28,6.6C221.5,176,223.89,177.27,226.1,178.28Z"/><path class="cls-26" d="M230,152.9a4.34,4.34,0,0,1,.83-1.43,1.31,1.31,0,0,1,2.32,1.09,4.34,4.34,0,0,1-.65,1.71l-5.16,9.39a2,2,0,0,1-1,1.09c-1.38.43-.81-1.16-.56-1.69.52-1.12,1-2.29,1.44-3.43Z"/><path class="cls-26" d="M225.53,166.33a1.34,1.34,0,0,1,.12,1.13,3.84,3.84,0,0,1-.56,1,2.5,2.5,0,0,1-.57.65.86.86,0,0,1-.82.13.82.82,0,0,1-.45-.61,1.76,1.76,0,0,1,.06-.78C223.51,167.16,224.6,165,225.53,166.33Z"/><path class="cls-32" d="M251.39,108.83c-5-4.74-2.69-10-1-12.53l-2.95-.75h-4.87l-1.95,2.92a68.13,68.13,0,0,0-6,13c-2.17,6.6-4.41,17.44.46,25.56A57.23,57.23,0,0,1,251.39,108.83Z"/><path class="cls-33" d="M285,126.32a14.9,14.9,0,0,0-5-9.61s-15.33,1-26.14-6a16.18,16.18,0,0,1-2.47-1.92A57.23,57.23,0,0,0,235.06,137a18.79,18.79,0,0,0,7.73,7.06c19.83,10.22,38.07-3,39.9-4.87S285.73,132.64,285,126.32Z"/><ellipse class="cls-29" cx="241.75" cy="122.55" rx="4.74" ry="3.74" transform="translate(29.7 291.36) rotate(-65.4)"/><ellipse class="cls-26" cx="242.17" cy="123.2" rx="3.37" ry="2.66" transform="translate(29.35 292.12) rotate(-65.4)"/><rect class="cls-29" x="261.07" y="130.86" width="8.92" height="1.26" transform="translate(86.22 -104.4) rotate(26.42)"/><rect class="cls-29" x="259.82" y="133.37" width="8.92" height="1.26" transform="translate(87.21 -103.59) rotate(26.42)"/><path class="cls-34" d="M293.58,145.55c3.07-.67,6.42-1.5,8.27-3.9a12,12,0,0,0,1.89-5.22l2-10.33a19.44,19.44,0,0,0,.5-4.82c-1.55-3.32-3.43-6-5.66-7l-4-1.77c-1-.43-1.14.34-1.65,1.22-2.13,3.67-7.33,12.95-8.16,17.51h0a65.08,65.08,0,0,0-1,11.62v5.23l8.76-.82A3.22,3.22,0,0,0,293.58,145.55Z"/><path class="cls-35" d="M310.16,133.44a63.07,63.07,0,0,0-3.93-12.17,19.44,19.44,0,0,1-.5,4.82l-2,10.33a12,12,0,0,1-1.89,5.22c-1.85,2.4-5.19,3.23-8.27,3.9a3.22,3.22,0,0,1,.9,1.74l-8.76.82v2s-1.14-.05-2.4-.05a6.14,6.14,0,0,0,1.41.26c4,.24,8.21.83,11.6,2.9s5.81,6,4.92,9.67a4.76,4.76,0,0,1-1.42,2.51,3.25,3.25,0,0,1-2.83.76,4.14,4.14,0,0,1-2.52-2.46,12.74,12.74,0,0,0-1.64-3.16c-1.45-1.65-4.06-2-6.28-1.52a31.32,31.32,0,0,0-6.23,2.59c-.59.27-1.21.49-1.82.72l-.08,3.9s.87,2.47,2.9,3.12,9,4.84,13.59,4.84,9.07-3.15,9.33-4.84S311.86,141,310.16,133.44Z"/><path class="cls-36" d="M286.56,159c2.22-.49,4.83-.14,6.28,1.52a12.74,12.74,0,0,1,1.64,3.16,4.14,4.14,0,0,0,2.52,2.46,3.25,3.25,0,0,0,2.83-.76,4.76,4.76,0,0,0,1.42-2.51c.89-3.71-1.53-7.59-4.92-9.67s-7.56-2.67-11.6-2.9a6.14,6.14,0,0,1-1.41-.26c-.69,0-1.41,0-2,.05a3.84,3.84,0,0,0-2.61,1.44l-.21,10.77c.61-.24,1.23-.45,1.82-.72A31.32,31.32,0,0,1,286.56,159Z"/><path class="cls-37" d="M268.63,164.22c1-1.39,2.12-3,3.81-3.2a7.16,7.16,0,0,1,3.34.7,9.51,9.51,0,0,0,6.69.25,5.38,5.38,0,0,0,2.51-2.18c0-2.61-3.09-7.68-3.09-7.68s-5.53-8-9.06-8.58-15,3.47-15.21,6.57.34,3.65,1.17,3.65a62,62,0,0,0,6.49-2s-8.65,3.47-7.7,6.39a4.46,4.46,0,0,0,3.14,3.28s2.85,4,5.8,4.93h0A8.47,8.47,0,0,0,268.63,164.22Z"/><path class="cls-38" d="M282.47,162a9.51,9.51,0,0,1-6.69-.25,7.16,7.16,0,0,0-3.34-.7c-1.69.25-2.81,1.82-3.81,3.2a8.47,8.47,0,0,1-2.1,2.12c3,.91,3.32-.73,5-.91s8.21,0,9.31,0,4-2.92,4.2-5.47c0-.05,0-.12,0-.17A5.38,5.38,0,0,1,282.47,162Z"/><path class="cls-39" d="M294.3,101.44c.35,3.95-12.48,8-24.27,6.63s-18.64-9.24-18.31-12c.66-5.5,10.78-7.15,22.57-5.75S293.81,95.93,294.3,101.44Z"/><path class="cls-40" d="M304.86,76.55A29.54,29.54,0,0,0,262.27,50l.43-.09a30.59,30.59,0,0,1,25,53.46A29.57,29.57,0,0,0,304.86,76.55Z"/><path class="cls-41" d="M298.45,80.09A30.46,30.46,0,0,0,262.7,49.93l-.43.09a29.56,29.56,0,0,0,25.4,53.37A30.54,30.54,0,0,0,298.45,80.09Z"/><path class="cls-42" d="M254.23,57.91a3.49,3.49,0,0,1,1.18-.6,1.59,1.59,0,0,1,1.48.32,1.69,1.69,0,0,1,.22,1.87,6.41,6.41,0,0,1-1.21,1.59,14.57,14.57,0,0,0-2,2.88,7.53,7.53,0,0,1-.84,1.39,1.89,1.89,0,0,1-1.39.73c-2.24,0-1-4-.41-5A10.1,10.1,0,0,1,254,58.05Z"/><path class="cls-42" d="M250.87,68a2.94,2.94,0,0,1,.23,1.43,5.79,5.79,0,0,1-.28,1.48,2.75,2.75,0,0,1-.71,1.22,1.36,1.36,0,0,1-1.32.33,1.73,1.73,0,0,1-1-1.34,4.33,4.33,0,0,1,.61-3.37A1.4,1.4,0,0,1,250.87,68Z"/><g class="cls-4"><path class="cls-43" d="M302.32,292.54c14.53-28.89,42.52-50.09,73.72-58.19a120,120,0,1,0,9.8,219.11c-24.11-3.74-47.1-14.87-64.05-32.46C289.76,387.75,281.58,333.8,302.32,292.54Z"/><path class="cls-44" d="M408.1,439.08A120,120,0,0,0,376,234.36c-31.2,8.1-59.19,29.3-73.72,58.19C281.58,333.8,289.76,387.75,321.8,421c17,17.59,39.94,28.72,64.05,32.46l.93-.46A120.11,120.11,0,0,0,408.1,439.08Z"/><path class="cls-45" d="M372.51,404.91c-11.79-15.85-20.75-34.33-36.21-46.62C320,345.36,298.83,341,279.17,334.34A228.83,228.83,0,0,1,220,303.91a119.07,119.07,0,0,0-5.83,21.36c12.83,6.77,23.44,17.89,32.4,29.55,11.51,15,21.3,31.46,35,44.45,20.59,19.49,48.14,29.43,74.48,39.94A323.65,323.65,0,0,1,386.78,453a120.11,120.11,0,0,0,21.32-13.93A150.78,150.78,0,0,1,372.51,404.91Z"/><path class="cls-44" d="M313.13,397.85a20.49,20.49,0,0,0,7.22,2.85,7.72,7.72,0,0,0,9.14-9.82,19.49,19.49,0,0,0-3.74-7.36,56.94,56.94,0,0,0-18.44-15.95c-3.46-1.89-20.34-10.13-23.84-6.56-3.29,3.35,7.6,17,9.74,19.68A70.76,70.76,0,0,0,313.13,397.85Z"/><path class="cls-45" d="M448.92,317.84c-13.21-10.61-29.34-18-45.71-22.81-26.63-7.76-54.56-9.57-81.89-14.32-24-4.16-48.27-11-68-24.91a120.69,120.69,0,0,0-10.94,10.9c22.69,17.25,49.9,27.63,76.93,36.86,28.27,9.65,57.17,18.49,82.75,33.92,18,10.83,34.35,25.48,45.11,43.26a120.54,120.54,0,0,0,1.74-62.91Z"/><path class="cls-45" d="M274.52,446.27c-12.74-14.56-23-31.06-34.54-46.61-7.47-10.1-15.61-19.92-25-28.27a120.18,120.18,0,0,0,68.34,84.26Q278.78,451.12,274.52,446.27Z"/><path class="cls-45" d="M372.51,404.91c-11.79-15.85-20.75-34.33-36.21-46.62C320,345.36,298.83,341,279.17,334.34A228.83,228.83,0,0,1,220,303.91a119.07,119.07,0,0,0-5.83,21.36c12.83,6.77,23.44,17.89,32.4,29.55,11.51,15,21.3,31.46,35,44.45,20.59,19.49,48.14,29.43,74.48,39.94A323.65,323.65,0,0,1,386.78,453a120.11,120.11,0,0,0,21.32-13.93A150.78,150.78,0,0,1,372.51,404.91Z"/><path class="cls-44" d="M313.13,397.85a20.49,20.49,0,0,0,7.22,2.85,7.72,7.72,0,0,0,9.14-9.82,19.49,19.49,0,0,0-3.74-7.36,56.94,56.94,0,0,0-18.44-15.95c-3.46-1.89-20.34-10.13-23.84-6.56-3.29,3.35,7.6,17,9.74,19.68A70.76,70.76,0,0,0,313.13,397.85Z"/><path class="cls-45" d="M448.92,317.84c-13.21-10.61-29.34-18-45.71-22.81-26.63-7.76-54.56-9.57-81.89-14.32-24-4.16-48.27-11-68-24.91a120.69,120.69,0,0,0-10.94,10.9c22.69,17.25,49.9,27.63,76.93,36.86,28.27,9.65,57.17,18.49,82.75,33.92,18,10.83,34.35,25.48,45.11,43.26a120.54,120.54,0,0,0,1.74-62.91Z"/><path class="cls-45" d="M274.52,446.27c-12.74-14.56-23-31.06-34.54-46.61-7.47-10.1-15.61-19.92-25-28.27a120.18,120.18,0,0,0,68.34,84.26Q278.78,451.12,274.52,446.27Z"/></g><circle class="cls-2" cx="109.75" cy="180.14" r="4.14"/><path class="cls-44" d="M304.38,239.89a4.48,4.48,0,0,0-3.86-1.9,9.39,9.39,0,0,0-4.39,1.41c-2.17,1.21-13.56,10.82-6,11.31A17.14,17.14,0,0,0,302,246.85c2-1.67,3.72-4.52,2.45-6.81Z"/><circle class="cls-2" cx="337.71" cy="130.26" r="4.14"/><circle class="cls-2" cx="137.87" cy="322.89" r="4.14"/><circle class="cls-2" cx="398.05" cy="123.85" r="4.14"/><path class="cls-46" d="M138.77,107l-27.59.16a2,2,0,0,0-2,2l0,3,31.53-.18,0-3a2,2,0,0,0-2-2Zm-23.63,3.09a1,1,0,1,1,1-1,1,1,0,0,1-1,1Zm19.7-.11a1,1,0,1,1,1-1,1,1,0,0,1-1,1Zm0,0"/><path class="cls-47" d="M144.71,112.92c.1-.57-1.4-2-2-2l-35.47.2a2.41,2.41,0,0,0-2,2c.84,4.59,3,14.76,3,14.76l33.5-.19s2.09-10.2,2.87-14.79Zm0,0"/><path class="cls-48" d="M141.84,127.72l-33.5.19s-2.09,10.2-2.87,14.79a1.89,1.89,0,0,0,2,2l35.47-.2a2,2,0,0,0,2-2c-.84-4.59-3-14.76-3-14.76Zm0,0"/><path class="cls-49" d="M121.68,127.83a3.6,3.6,0,0,1,2.08,1.52,4.68,4.68,0,0,1,.65,2.42,4.63,4.63,0,0,1-1.51,3.68,5.74,5.74,0,0,1-3.91,1.36,5.89,5.89,0,0,1-3.88-1.24,4.05,4.05,0,0,1-1.49-3.42l0-.07h2.21a2.85,2.85,0,0,0,.84,2.15A3.14,3.14,0,0,0,119,135a3.2,3.2,0,0,0,2.3-.81,3.14,3.14,0,0,0,.82-2.37,3.22,3.22,0,0,0-.76-2.34,3.16,3.16,0,0,0-2.34-.74h-2v-.91Zm0,0"/><rect class="cls-50" x="132.64" y="127.76" width="2.31" height="8.72" transform="translate(-0.76 0.77) rotate(-0.33)"/><path class="cls-51" d="M115.94,124h-2.22l0-.07a4.15,4.15,0,0,1,1.39-3.31,5.39,5.39,0,0,1,3.82-1.38,5.46,5.46,0,0,1,3.79,1.24,4.59,4.59,0,0,1,1.43,3.59,4.11,4.11,0,0,1-2.54,3.73l.11,0-4.7,0V127h2a2.7,2.7,0,0,0,2.17-.78,3.26,3.26,0,0,0,.63-2.15,3.11,3.11,0,0,0-.74-2.23,2.82,2.82,0,0,0-2.15-.75,3,3,0,0,0-2.17.81,2.85,2.85,0,0,0-.8,2.11Zm0,0"/><path class="cls-51" d="M134.93,127.76h-2.31l0-6.13-3.5.07V120l5.81-.67Zm0,0"/><path class="cls-47" d="M107.26,111.17a2,2,0,0,0-2,2c.84,4.59,3,14.76,3,14.76"/><path class="cls-47" d="M141.84,127.72s2.09-10.2,2.87-14.79a1.92,1.92,0,0,0-2-2"/><rect class="cls-52" x="338.98" y="143.7" width="34.37" height="34.37" rx="3.36" ry="3.36" transform="translate(192.4 515.73) rotate(-89.54)"/><rect class="cls-53" x="356.16" y="150.51" width="15.04" height="10.48" rx="1.61" ry="1.61" transform="matrix(0.01, -1, 1, 0.01, 204.99, 518.15)"/><rect class="cls-53" x="336.88" y="154.68" width="23.63" height="10.48" rx="1.61" ry="1.61" transform="translate(185.95 507.31) rotate(-89.54)"/><rect class="cls-52" x="159.86" y="369.75" width="39.26" height="39.26" rx="1.64" ry="1.64"/><path class="cls-26" d="M193.73,380.94a11,11,0,0,1-3.15.9,5.51,5.51,0,0,0,2.38-3.06,11,11,0,0,1-3.47,1.37,5.5,5.5,0,0,0-9.31,5.11,15.59,15.59,0,0,1-11.38-5.62,5.5,5.5,0,0,0,1.78,7.31,5.47,5.47,0,0,1-2.49-.66s0,0,0,.07a5.5,5.5,0,0,0,4.46,5.34,5.5,5.5,0,0,1-2.48.12,5.5,5.5,0,0,0,5.17,3.76,11,11,0,0,1-6.8,2.42,11.14,11.14,0,0,1-1.31-.06A15.62,15.62,0,0,0,191,384.52q0-.36,0-.71A11.16,11.16,0,0,0,193.73,380.94Z"/><path class="cls-54" d="M330.63,319.43,312.5,334.19v2.74l19.17-.07,19.17-.07V334l-18.23-14.62A1.58,1.58,0,0,0,330.63,319.43Z"/><path class="cls-52" d="M346.75,352l-30.14.11a1.4,1.4,0,0,1-1.49-1.27L315,326.59a1.4,1.4,0,0,1,1.48-1.28l30.14-.11a1.4,1.4,0,0,1,1.49,1.27l.09,24.23A1.39,1.39,0,0,1,346.75,352Z"/><path class="cls-55" d="M349.32,349.51v.62a1.85,1.85,0,0,1-1.84,1.85L316,352.1a1.85,1.85,0,0,1-1.85-1.84v-.62Z"/><path class="cls-26" d="M350.84,334.08l.08,21.61a1.58,1.58,0,0,1-1.57,1.59l-35.18.13a1.58,1.58,0,0,1-1.59-1.57l-.08-21.61,19.44,15.21Z"/><path class="cls-54" d="M350.72,356.48l-17.81-14.25a1.58,1.58,0,0,0-2,0l-18,14.6a1.58,1.58,0,0,0,1.22.57l35.18-.13A1.58,1.58,0,0,0,350.72,356.48Z"/><path class="cls-26" d="M334.78,338.93a7,7,0,0,1-3.11.62,5.17,5.17,0,0,1-5.33-5.34,6.29,6.29,0,0,1,6.34-6.51,4.85,4.85,0,0,1,5.16,4.9c0,2.49-1.38,4.06-3.22,4.06a1.34,1.34,0,0,1-1.47-1.31h0a2.5,2.5,0,0,1-2.19,1.32,2,2,0,0,1-1.92-2.21,3.89,3.89,0,0,1,4-4,4.78,4.78,0,0,1,2,.42l-.5,3.15c-.17,1,0,1.46.43,1.48.73,0,1.65-.93,1.64-2.88a3.75,3.75,0,0,0-4.08-3.92,5,5,0,0,0-4.87,5.31A4.12,4.12,0,0,0,332,338.5a5.54,5.54,0,0,0,2.47-.55Zm-1.54-7a2.09,2.09,0,0,0-.53-.07,2.25,2.25,0,0,0-2,2.43c0,.65.29,1.05.86,1.05s1.29-.81,1.44-1.79Z"/><rect class="cls-52" x="71.09" y="225.46" width="39.45" height="39.45" rx="3.85" ry="3.85" transform="translate(-155.1 334.01) rotate(-89.54)"/><path class="cls-54" d="M94.67,234.37a2.29,2.29,0,1,0-4.36,1.42L96.23,254a2.29,2.29,0,0,0,4.36-1.42l-5.93-18.25"/><path class="cls-54" d="M85.47,237.36a2.29,2.29,0,1,0-4.36,1.42L87,257a2.29,2.29,0,0,0,4.36-1.42l-5.93-18.25"/><path class="cls-26" d="M102.13,249.49a2.29,2.29,0,0,0-1.42-4.36l-18.25,5.93a2.29,2.29,0,0,0,1.42,4.36l18.25-5.93"/><path class="cls-56" d="M86.27,254.64l4.36-1.42-1.42-4.36-4.36,1.42,1.42,4.36"/><path class="cls-56" d="M95.46,251.65l4.36-1.42-1.42-4.36L94,247.29l1.42,4.36"/><path class="cls-26" d="M99.15,240.29a2.29,2.29,0,1,0-1.42-4.36l-18.25,5.93a2.29,2.29,0,0,0,1.42,4.36l18.25-5.93"/><path class="cls-56" d="M83.28,245.45,87.64,244l-1.42-4.36-4.36,1.42,1.42,4.36"/><path class="cls-56" d="M92.47,242.46,96.83,241l-1.42-4.36-4.36,1.42,1.42,4.36"/></svg>